<svg id="svg" version="1.1" xmlns="http://www.w3.org/2000/svg" xmlns:xlink="http://www.w3.org/1999/xlink" width="400" height="400" viewBox="0, 0, 400,400"><g id="svgg"><path id="path0" d="M44.384 5.341 C 34.499 10.051,31.334 15.159,36.288 18.405 C 39.120 20.261,46.654 18.652,47.672 15.975 C 48.062 14.949,49.830 12.800,51.602 11.200 C 54.391 8.680,54.759 7.976,54.352 5.942 C 53.480 1.579,52.414 1.515,44.384 5.341 M189.844 20.810 C 178.833 22.418,160.128 28.395,160.168 30.294 C 160.221 32.811,161.575 32.976,168.617 31.323 C 172.515 30.408,180.732 29.099,186.876 28.414 C 199.006 27.061,199.414 26.911,199.414 23.798 C 199.414 20.557,196.916 19.778,189.844 20.810 M224.665 31.696 C 222.684 33.678,223.153 34.790,228.711 41.280 C 231.611 44.667,236.346 50.466,239.233 54.167 C 245.960 62.790,250.781 64.473,250.781 58.197 C 250.781 48.722,229.368 26.994,224.665 31.696 M15.920 48.678 C 6.321 58.429,1.852 66.474,3.905 70.309 C 5.962 74.154,9.401 71.332,13.454 62.476 C 15.038 59.014,18.130 54.287,20.964 50.995 C 25.929 45.226,26.679 43.480,24.545 42.662 C 22.574 41.905,22.614 41.878,15.920 48.678 M132.241 47.594 C 124.114 52.075,103.906 69.778,103.906 72.417 C 103.906 73.267,105.549 75.000,106.355 75.000 C 106.671 75.000,109.651 72.837,112.978 70.193 C 116.305 67.549,123.372 62.420,128.682 58.794 C 139.311 51.538,141.243 49.489,139.872 46.927 C 138.716 44.768,137.112 44.909,132.241 47.594 M249.745 77.930 C 249.554 78.252,249.145 80.449,248.837 82.813 C 247.979 89.397,245.729 99.648,243.457 107.314 C 241.148 115.109,240.878 118.902,242.535 120.277 C 248.134 124.924,253.676 110.508,254.458 89.258 L 254.897 77.344 252.494 77.344 C 251.173 77.344,249.936 77.607,249.745 77.930 M0.502 87.960 C -1.601 103.308,1.601 118.058,6.619 116.132 C 8.730 115.322,8.907 113.242,7.452 106.316 C 6.677 102.627,5.651 96.270,5.170 92.188 C 4.113 83.201,1.481 80.818,0.502 87.960 M89.983 94.562 C 83.579 97.181,61.886 116.022,62.732 118.229 C 63.499 120.227,65.535 119.793,69.100 116.872 C 70.886 115.409,76.898 111.238,82.462 107.604 C 93.780 100.211,95.552 98.590,95.180 95.963 C 94.891 93.924,92.872 93.380,89.983 94.562 M11.719 127.270 C 11.719 128.397,18.573 132.631,23.355 134.458 C 33.428 138.307,50.875 134.898,46.720 129.892 C 45.932 128.942,44.476 128.832,38.699 129.288 C 27.695 130.155,22.345 129.860,17.808 128.135 C 13.273 126.412,11.719 126.191,11.719 127.270 M225.235 147.070 C 219.931 152.898,208.404 170.717,207.498 174.489 C 205.495 182.827,214.731 179.809,219.392 170.602 C 220.669 168.080,223.662 162.581,226.044 158.382 C 231.343 149.040,231.641 148.159,230.049 146.567 C 228.345 144.862,227.129 144.990,225.235 147.070 M187.774 199.414 C 173.815 213.840,165.131 232.207,169.978 237.054 C 173.584 240.660,176.277 237.368,180.513 224.174 C 183.618 214.500,187.424 206.915,192.306 200.669 C 197.246 194.349,193.641 193.351,187.774 199.414 M150.016 265.039 C 135.458 279.557,125.476 307.813,134.906 307.813 C 137.278 307.813,139.333 303.710,141.865 293.920 C 144.342 284.343,147.703 276.983,152.930 269.690 C 159.511 260.508,157.608 257.469,150.016 265.039 M366.688 277.703 C 363.982 279.599,362.967 283.008,364.093 286.420 C 365.710 291.320,376.995 315.728,380.067 320.968 C 383.571 326.948,384.535 326.182,371.631 327.677 C 357.352 329.330,352.536 331.564,353.695 335.997 C 354.418 338.760,357.301 338.970,382.031 338.058 C 389.980 337.764,396.723 337.519,397.015 337.512 C 401.131 337.418,400.862 330.487,396.432 322.477 C 394.470 318.929,390.568 310.926,387.762 304.693 C 378.594 284.326,375.749 278.531,374.434 277.539 C 372.685 276.220,368.684 276.305,366.688 277.703 M330.590 291.331 C 327.944 292.967,329.940 295.618,334.505 296.529 C 341.021 297.830,343.524 299.012,349.819 303.764 C 354.944 307.634,355.685 307.965,357.436 307.167 C 363.351 304.472,354.843 294.982,344.141 292.336 C 339.437 291.173,331.766 290.604,330.590 291.331 M302.922 307.154 C 289.685 321.121,282.401 331.606,284.325 333.924 C 286.307 336.312,288.210 335.048,299.816 323.633 C 312.804 310.859,315.584 306.841,313.890 303.293 C 311.933 299.197,309.727 299.974,302.922 307.154 M133.360 334.869 C 132.492 335.738,132.724 348.725,133.690 353.282 C 135.229 360.544,139.199 366.787,143.750 369.102 C 154.010 374.321,158.977 367.598,149.414 361.435 C 141.133 356.097,139.028 352.607,137.274 341.305 C 136.308 335.076,135.115 333.114,133.360 334.869 M274.536 346.375 C 265.959 352.501,262.173 354.458,256.862 355.512 C 250.229 356.827,249.080 357.510,249.363 359.968 L 249.609 362.109 257.422 362.010 C 269.754 361.852,279.963 357.205,285.137 349.394 C 287.934 345.171,287.957 344.988,285.938 342.969 C 283.536 340.567,282.044 341.013,274.536 346.375 M175.000 381.066 C 175.000 382.410,183.883 388.487,191.016 392.024 C 205.755 399.333,228.125 398.961,228.125 391.406 C 228.125 387.647,227.082 387.405,211.589 387.575 C 195.347 387.753,192.563 387.278,183.174 382.729 C 176.131 379.317,175.000 379.087,175.000 381.066 " stroke="none" fill="#000000" fill-rule="evenodd"></path></g></svg>