<?xml version="1.0" encoding="UTF-8" standalone="no"?>
<svg
   xmlns:dc="http://purl.org/dc/elements/1.1/"
   xmlns:cc="http://creativecommons.org/ns#"
   xmlns:rdf="http://www.w3.org/1999/02/22-rdf-syntax-ns#"
   xmlns:svg="http://www.w3.org/2000/svg"
   xmlns="http://www.w3.org/2000/svg"
   xmlns:sodipodi="http://sodipodi.sourceforge.net/DTD/sodipodi-0.dtd"
   xmlns:inkscape="http://www.inkscape.org/namespaces/inkscape"
   version="1.1"
   id="svg2"
   xml:space="preserve"
   width="288"
   height="182.94667"
   viewBox="0 0 288 182.94667"
   sodipodi:docname="visa_pos_fc.eps"><metadata
     id="metadata8"><rdf:RDF><cc:Work
         rdf:about=""><dc:format>image/svg+xml</dc:format><dc:type
           rdf:resource="http://purl.org/dc/dcmitype/StillImage" /></cc:Work></rdf:RDF></metadata><defs
     id="defs6" /><sodipodi:namedview
     pagecolor="#ffffff"
     bordercolor="#666666"
     borderopacity="1"
     objecttolerance="10"
     gridtolerance="10"
     guidetolerance="10"
     inkscape:pageopacity="0"
     inkscape:pageshadow="2"
     inkscape:window-width="640"
     inkscape:window-height="480"
     id="namedview4" /><g
     id="g10"
     inkscape:groupmode="layer"
     inkscape:label="ink_ext_XXXXXX"
     transform="matrix(1.3333333,0,0,-1.3333333,0,182.94667)"><g
       id="g12"
       transform="scale(0.1)"><path
         d="M 2160,0 H 0 V 1372.1 H 2160 V 0"
         style="fill:#ffffff;fill-opacity:1;fill-rule:nonzero;stroke:none"
         id="path14" /><path
         d="M 35.9727,222.949 H 2123.99 V 35.75 H 35.9727 v 187.199"
         style="fill:#f9ab0c;fill-opacity:1;fill-rule:nonzero;stroke:none"
         id="path16" /><path
         d="M 35.9727,1148.91 H 2123.99 v 187.2 H 35.9727 v -187.2"
         style="fill:#1d337a;fill-opacity:1;fill-rule:nonzero;stroke:none"
         id="path18" /><path
         d="M 1061.97,942.668 951.914,428.117 H 818.793 l 110.07,514.551 z m 560.04,-332.258 70.08,193.238 40.31,-193.238 z m 148.6,-182.293 h 123.08 l -107.54,514.551 h -113.54 c -25.6,0 -47.16,-14.84 -56.71,-37.723 L 1416.15,428.117 h 139.81 l 27.75,76.844 h 170.76 z m -347.52,167.988 c 0.58,135.79 -187.72,143.321 -186.47,203.993 0.41,18.437 17.99,38.078 56.45,43.097 19.06,2.461 71.66,4.442 131.29,-23.027 l 23.32,109.16 c -32.04,11.582 -73.25,22.738 -124.52,22.738 -131.6,0 -224.18,-69.898 -224.92,-170.078 -0.84,-74.082 66.14,-115.386 116.49,-140.054 51.91,-25.215 69.31,-41.399 69.06,-63.926 -0.36,-34.52 -41.41,-49.805 -79.61,-50.379 -66.97,-1.047 -105.78,18.094 -136.72,32.519 L 1043.3,447.344 c 31.15,-14.258 88.56,-26.668 147.99,-27.305 139.9,0 231.39,69.082 231.8,176.066 M 871.762,942.668 656.074,428.117 H 515.371 L 409.223,838.766 c -6.43,25.25 -12.039,34.531 -31.61,45.199 -32.011,17.394 -84.859,33.652 -131.32,43.769 l 3.141,14.934 h 226.519 c 28.852,0 54.809,-19.199 61.41,-52.434 l 56.071,-297.773 138.48,350.207 h 139.848"
         style="fill:#1d337a;fill-opacity:1;fill-rule:nonzero;stroke:none"
         id="path20" /></g></g></svg>
